# xmcd
#
# Track frame offsets:
# 150
# 16170
# 35760
# 53018
# 71333
# 86191
# 102879
# 119049
# 135797
# 151195
# 168258
# 182238
#
# Disc length: 2678 seconds
#
# Revision: 0
# Processed by: cddbd v1.5.2PL0 Copyright (c) Steve Scherf et al.
# Submitted via: Axialis_AX_CDPlayer 2.6
#
DISCID=950a740c
DTITLE=David Archuleta - David Archuleta
DYEAR=1900
DGENRE=
TTITLE0=Crush
TTITLE1=Touch My Hand
TTITLE2=Barriers
TTITLE3=My Hands
TTITLE4=A Little Too Not Over You
TTITLE5=You Can
TTITLE6=Running
TTITLE7=Desperate
TTITLE8=To Be With You
TTITLE9=Don't Let Go
TTITLE10=Your Eyes Don't Lie
TTITLE11=Angels
EXTD=
EXTT0=
EXTT1=
EXTT2=
EXTT3=
EXTT4=
EXTT5=
EXTT6=
EXTT7=
EXTT8=
EXTT9=
EXTT10=
EXTT11=
PLAYORDER=
